<?xml version="1.0" standalone="no"?>
<!DOCTYPE svg PUBLIC "-//W3C//DTD SVG 20010904//EN"
 "http://www.w3.org/TR/2001/REC-SVG-20010904/DTD/svg10.dtd">
<svg version="1.0" xmlns="http://www.w3.org/2000/svg"
 width="1280.000000pt" height="1280.000000pt" viewBox="0 0 1280.000000 1280.000000"
 preserveAspectRatio="xMidYMid meet">
<metadata>
Created by potrace 1.15, written by Peter Selinger 2001-2017
</metadata>
<g transform="translate(0.000000,1280.000000) scale(0.100000,-0.100000)"
fill="#ff9800" stroke="none">
<path d="M6930 10000 c-82 -13 -201 -62 -312 -126 -58 -34 -188 -191 -188
-226 0 -11 9 -38 21 -61 37 -76 69 -191 76 -274 5 -67 2 -100 -17 -177 l-23
-95 40 -38 c52 -49 86 -104 106 -173 9 -30 22 -75 29 -100 12 -41 16 -45 53
-52 22 -4 70 -7 106 -7 104 -1 143 -43 109 -118 -26 -58 -84 -103 -215 -169
-147 -73 -215 -132 -215 -187 0 -20 -4 -58 -9 -84 -29 -150 -54 -405 -86 -903
-24 -353 -31 -441 -54 -660 -9 -77 -29 -193 -38 -220 -3 -8 -7 -28 -9 -45 -7
-55 -15 -76 -27 -72 -9 3 -14 77 -18 283 -6 280 -12 346 -49 549 -11 61 -29
166 -40 235 -11 69 -27 166 -35 215 -8 50 -17 104 -20 120 -2 17 -11 56 -20
88 -8 32 -15 65 -15 73 0 33 -73 205 -100 234 -96 106 -126 126 -265 171 -38
12 -92 33 -120 46 -57 26 -129 88 -120 103 3 5 25 14 48 20 132 34 202 105
222 227 10 62 -3 76 -77 88 l-63 10 3 150 c5 202 -22 335 -98 485 -38 76 -59
100 -87 100 -36 0 -81 37 -128 106 -87 127 -131 149 -305 149 -114 0 -132 -3
-200 -29 -133 -51 -217 -104 -317 -200 -24 -22 -43 -45 -43 -52 0 -6 -7 -17
-15 -24 -31 -26 -66 -115 -72 -185 -5 -64 -3 -76 22 -125 15 -30 47 -77 70
-103 89 -102 111 -202 63 -287 l-23 -42 25 -16 c59 -41 83 -70 136 -165 85
-152 78 -147 201 -147 89 0 106 -3 123 -20 19 -19 19 -20 -2 -70 -23 -56 -82
-108 -158 -141 -182 -76 -200 -98 -182 -202 5 -34 15 -82 22 -107 26 -102 12
-209 -45 -335 -47 -104 -55 -129 -55 -180 0 -57 22 -95 117 -198 24 -26 51
-64 60 -85 20 -46 21 -158 4 -232 -16 -64 -116 -279 -155 -329 -14 -19 -26
-41 -26 -48 0 -7 -4 -13 -9 -13 -9 0 -63 -88 -123 -200 -34 -64 -65 -149 -108
-300 -49 -175 -172 -400 -218 -400 -15 0 -35 29 -49 69 -19 52 -51 188 -58
246 -22 175 -63 325 -125 462 -30 65 -40 95 -70 208 -10 39 -28 92 -40 120
-76 175 -89 212 -110 305 -24 108 -42 149 -81 193 -36 41 -39 50 -39 103 0 34
-6 64 -14 73 -15 18 -36 96 -36 135 0 42 -56 77 -192 120 -68 21 -143 45 -168
53 -162 51 -218 187 -144 344 18 37 49 93 70 125 21 33 46 75 56 94 25 51 36
160 27 264 -16 179 -16 178 -77 253 -31 38 -73 83 -92 100 -55 47 -161 117
-200 130 -63 22 -170 13 -255 -22 -16 -7 -55 -23 -85 -36 -117 -48 -242 -143
-300 -227 -33 -49 -30 -132 8 -247 17 -49 35 -118 42 -152 12 -67 10 -72 -36
-140 -35 -52 -31 -72 26 -127 28 -27 50 -54 50 -61 0 -8 4 -15 10 -17 5 -1 30
-48 54 -103 41 -95 45 -100 77 -103 18 -2 52 1 75 7 50 13 74 6 74 -21 0 -52
-61 -114 -157 -161 -158 -76 -205 -131 -236 -277 -32 -148 -37 -223 -37 -537
0 -393 -5 -427 -71 -552 -28 -53 -57 -103 -65 -112 -8 -8 -14 -23 -14 -32 0
-9 -4 -19 -10 -22 -15 -9 -12 -86 4 -133 8 -22 36 -82 61 -134 92 -182 89
-171 89 -453 0 -167 -8 -342 -22 -525 -13 -151 -27 -408 -32 -570 -9 -296 -27
-466 -65 -600 -18 -63 -22 -82 -64 -285 -39 -184 -78 -340 -97 -382 -8 -17
-14 -37 -15 -45 0 -7 -13 -44 -28 -83 -32 -79 -29 -97 20 -114 30 -10 31 -13
26 -48 -7 -40 -39 -73 -97 -99 -42 -19 -202 -43 -286 -44 -73 0 -190 -33 -221
-63 -33 -30 -28 -53 20 -88 92 -67 201 -107 319 -116 71 -5 83 -3 159 27 55
23 84 30 87 22 5 -16 105 -72 129 -72 10 0 23 -4 29 -10 5 -5 25 -11 44 -12
33 -3 35 -1 81 81 43 76 67 148 84 253 5 35 8 37 47 40 37 3 43 7 50 33 9 32
58 327 78 465 46 328 81 510 136 723 12 44 13 72 6 125 -10 72 -1 162 23 223
32 83 138 288 150 293 32 12 73 -82 109 -254 34 -157 43 -191 55 -203 6 -6 11
-19 11 -28 0 -9 45 -64 101 -121 140 -144 268 -332 384 -568 47 -95 144 -319
178 -410 128 -348 122 -326 108 -394 -8 -38 -28 -85 -53 -126 -96 -151 -119
-192 -133 -234 -23 -67 -15 -76 69 -76 110 1 183 23 261 82 106 79 105 78 110
148 6 81 10 96 63 197 51 100 54 145 15 236 -21 51 -27 79 -28 157 -2 84 -6
104 -37 175 -38 86 -135 284 -147 300 -30 38 -216 402 -249 485 -35 89 -76
209 -91 267 -8 30 -24 52 -61 83 l-49 41 -4 117 c-2 64 -11 151 -21 192 -26
109 -25 106 -41 215 -26 179 -21 195 64 205 l46 5 12 80 c7 50 16 348 23 784
7 397 16 715 21 729 7 18 13 22 20 15 21 -21 59 -149 65 -221 7 -70 10 -79 57
-140 78 -101 130 -211 197 -412 33 -102 64 -192 69 -200 5 -9 28 -17 57 -20
l49 -5 -3 -214 -3 -213 43 6 c24 3 87 0 141 -7 61 -9 114 -11 140 -6 23 4 45
8 49 9 3 0 20 12 37 26 23 19 31 34 31 57 0 91 48 275 96 369 38 72 50 81 99
72 39 -7 84 12 134 56 48 43 59 29 49 -62 -11 -107 -27 -560 -22 -653 2 -44 9
-177 14 -295 10 -189 46 -550 70 -695 4 -27 14 -88 21 -133 17 -111 25 -117
172 -118 59 -1 113 -6 118 -11 6 -6 21 -55 34 -109 28 -120 59 -226 118 -404
64 -196 97 -304 97 -323 0 -9 7 -36 15 -60 22 -64 45 -248 45 -351 -1 -142
-30 -273 -94 -421 -8 -17 -43 -53 -79 -80 -71 -54 -133 -142 -122 -174 7 -24
67 -41 143 -41 51 0 73 6 136 39 42 21 95 54 118 72 41 31 57 47 113 112 19
22 34 29 74 31 28 2 65 12 83 23 33 19 33 20 41 119 16 202 7 246 -65 324 -83
89 -111 141 -138 252 -35 147 -41 253 -30 482 5 116 10 249 11 296 1 105 7
140 23 140 22 0 262 -207 395 -340 253 -253 387 -479 447 -754 25 -117 15
-393 -20 -530 -16 -63 -33 -107 -48 -123 -19 -20 -136 -82 -213 -112 -183 -72
-319 -193 -276 -245 7 -8 44 -24 84 -36 63 -19 88 -22 207 -17 113 4 153 10
244 36 60 18 142 47 181 66 65 31 81 35 156 35 92 0 142 10 206 42 72 36 78
46 81 168 4 127 6 129 108 163 l69 22 -3 200 c-5 361 18 651 82 1005 45 247
46 252 57 430 27 423 39 524 80 663 26 89 42 87 69 -5 11 -40 37 -129 57 -198
53 -186 106 -291 184 -370 35 -36 78 -72 95 -81 27 -14 200 -230 344 -429 19
-27 76 -104 125 -172 115 -156 173 -245 220 -333 20 -38 40 -72 44 -75 8 -6
110 -224 122 -260 4 -14 19 -52 33 -85 20 -48 30 -61 50 -63 45 -6 50 -24 30
-108 -12 -53 -32 -100 -65 -153 -27 -42 -64 -108 -84 -147 -32 -63 -36 -79
-33 -135 l3 -64 48 -3 c109 -7 265 77 354 191 54 70 70 103 76 162 9 85 29
118 145 244 50 54 44 137 -17 234 -24 37 -46 67 -50 67 -3 0 -21 13 -39 30
-32 29 -33 32 -27 87 l6 58 -86 107 c-105 133 -171 240 -293 478 -239 468
-297 573 -367 663 -39 49 -49 56 -102 68 -55 13 -58 15 -57 44 1 17 5 46 9 66
6 32 3 40 -39 89 -30 35 -52 73 -62 110 -9 30 -20 64 -25 75 -15 37 -28 198
-31 375 l-3 174 30 9 c84 25 80 16 83 179 l3 147 50 16 c72 24 182 24 249 0
42 -15 74 -38 133 -96 42 -42 77 -79 77 -82 0 -3 13 -25 29 -49 15 -24 45 -73
64 -110 54 -100 59 -108 100 -161 71 -93 136 -128 209 -111 17 3 67 24 112 45
88 43 107 46 126 24 10 -12 10 -25 2 -58 -29 -114 -40 -288 -48 -789 l-7 -406
39 -20 c21 -10 64 -27 94 -37 139 -45 211 -101 245 -189 16 -41 17 -63 9 -179
-4 -73 -8 -177 -9 -232 0 -87 3 -106 25 -150 14 -27 29 -54 33 -60 72 -92 139
-209 152 -263 3 -9 14 -43 25 -74 27 -77 52 -252 45 -313 -20 -171 -62 -255
-243 -493 -72 -94 -76 -120 -20 -143 37 -15 69 -16 245 -4 l121 8 96 96 c122
122 159 173 182 243 17 55 17 59 -1 98 -10 22 -21 40 -25 40 -4 0 -20 19 -36
42 l-29 41 -1 216 c-1 246 0 241 -90 426 l-59 120 1 115 c0 104 4 125 36 220
42 124 67 213 70 255 3 30 4 30 93 46 174 32 277 85 452 231 l82 68 -24 47
c-14 25 -25 52 -25 58 0 7 14 39 31 71 18 34 33 81 36 111 11 100 -37 163
-329 438 -130 123 -200 230 -223 343 -10 48 7 63 63 55 75 -9 148 -50 193
-107 22 -28 45 -58 52 -66 14 -17 66 -129 95 -205 25 -64 92 -183 170 -302 18
-29 49 -85 69 -124 34 -68 35 -74 29 -153 -18 -265 -18 -276 -6 -306 7 -17 18
-29 24 -27 23 7 64 85 92 172 27 85 28 100 28 265 0 148 -3 189 -22 265 -32
130 -70 232 -110 295 -32 51 -165 222 -203 261 -80 81 -154 245 -181 400 -2 9
-64 72 -138 139 l-135 123 -107 -7 c-134 -8 -178 5 -178 53 0 25 5 32 28 37
15 3 43 10 62 14 19 5 76 16 127 24 97 17 201 50 218 70 6 7 18 15 27 19 29
10 68 100 68 156 0 29 -5 53 -12 58 -7 4 -39 13 -72 20 -115 24 -173 91 -234
275 -73 216 -121 274 -275 331 -268 100 -596 67 -718 -71 -37 -42 -39 -49 -39
-109 0 -56 6 -75 45 -152 61 -120 62 -166 5 -223 -22 -22 -40 -45 -40 -50 0
-5 13 -26 29 -46 35 -46 45 -74 66 -182 9 -47 19 -87 22 -90 3 -3 42 -5 89 -5
93 0 118 -14 129 -70 11 -56 -8 -67 -118 -66 -53 0 -107 -3 -119 -8 -13 -5
-67 -65 -122 -134 -54 -69 -105 -128 -114 -132 -8 -3 -26 2 -40 11 -47 31
-312 305 -318 329 -3 13 2 48 13 77 22 64 25 243 5 298 -12 34 -12 35 38 80
78 71 84 107 49 306 -26 151 -26 279 2 459 59 380 59 369 10 449 -23 36 -41
70 -41 74 0 5 -11 30 -24 58 -13 27 -40 96 -59 154 -36 106 -51 161 -107 395
-17 72 -35 138 -41 147 -5 10 -9 25 -9 35 0 9 -5 30 -10 47 -6 17 -26 83 -46
146 -41 130 -132 328 -166 360 -23 22 -100 60 -198 100 -30 12 -68 27 -85 34
-16 7 -82 35 -145 61 -186 78 -305 169 -355 271 -34 69 -34 93 -3 136 39 52
84 146 109 228 19 61 23 98 23 195 0 108 -4 130 -32 216 -44 131 -88 201 -183
290 -72 68 -87 78 -136 88 -61 12 -261 13 -333 1z m1236 -3116 c8 -19 26 -88
39 -152 22 -106 32 -187 65 -542 14 -150 27 -246 47 -346 l15 -80 -29 -45
c-17 -24 -51 -77 -77 -117 -26 -40 -59 -80 -72 -89 -23 -14 -27 -15 -41 -1
-24 25 -36 348 -23 647 5 135 15 356 20 491 6 135 12 251 15 258 8 22 26 12
41 -24z m-2268 -1058 c11 -34 32 -124 47 -201 40 -218 56 -284 86 -369 16 -44
29 -90 29 -102 0 -41 -124 -264 -138 -249 -4 3 -7 99 -8 213 -1 124 -9 251
-18 317 -69 483 -72 523 -36 475 10 -13 27 -50 38 -84z m630 -643 c21 -19 42
-107 42 -174 0 -31 8 -45 49 -86 l49 -49 7 -160 c12 -249 9 -1347 -4 -1534
-20 -288 -43 -515 -54 -528 -17 -21 -25 -11 -182 233 -53 82 -196 316 -228
375 -48 85 -147 257 -167 290 -40 64 -70 124 -70 141 0 11 11 24 25 31 14 6
25 15 25 20 0 18 -25 88 -32 88 -10 0 -55 157 -67 235 -6 39 -15 99 -20 135
-15 97 -18 547 -4 561 12 12 21 5 93 -81 86 -104 133 -150 151 -150 11 0 35
24 61 63 48 71 63 85 100 93 29 7 38 27 38 86 0 21 16 84 36 140 31 90 35 113
33 183 -2 44 0 86 5 93 11 19 90 15 114 -5z"/>
</g>
</svg>
